<?xml version="1.0" standalone="no"?>
<!DOCTYPE svg PUBLIC "-//W3C//DTD SVG 20010904//EN"
 "http://www.w3.org/TR/2001/REC-SVG-20010904/DTD/svg10.dtd">
<svg version="1.0" xmlns="http://www.w3.org/2000/svg"
 width="1000.000000pt" height="1000.000000pt" viewBox="0 0 1000.000000 1000.000000"
 preserveAspectRatio="xMidYMid meet">
<metadata>
Created by potrace 1.11, written by Peter Selinger 2001-2013
</metadata>
<g transform="translate(0.000000,1000.000000) scale(0.100000,-0.100000)"
fill="#000000" stroke="none">
<path d="M0 5000 l0 -5000 5000 0 5000 0 0 5000 0 5000 -5000 0 -5000 0 0
-5000z m5460 4365 c1719 -183 3164 -1342 3711 -2975 156 -467 223 -885 223
-1395 0 -400 -35 -691 -125 -1058 -386 -1567 -1622 -2809 -3186 -3201 -378
-94 -670 -130 -1078 -130 -408 0 -700 36 -1078 130 -1563 392 -2800 1634
-3186 3199 -91 372 -125 657 -125 1060 0 314 13 478 60 750 235 1363 1108
2543 2344 3169 539 274 1121 429 1755 470 121 8 544 -4 685 -19z"/>
<path d="M4135 7539 c-116 -41 -196 -121 -237 -237 -16 -45 -19 -74 -15 -137
4 -72 27 -147 231 -744 124 -366 224 -666 222 -668 -1 -2 -15 6 -30 18 -76 59
-210 76 -310 39 -32 -13 -75 -40 -105 -68 -109 -102 -133 -235 -73 -406 l31
-88 -45 41 c-69 64 -123 85 -224 86 -73 0 -93 -4 -142 -28 -72 -35 -140 -110
-168 -185 -41 -107 -31 -153 124 -596 74 -213 145 -403 156 -422 75 -121 231
-185 364 -151 136 36 231 142 251 281 l8 49 19 -37 c26 -50 89 -110 146 -138
39 -19 63 -23 142 -23 83 0 101 4 145 27 95 50 168 148 181 241 6 43 6 44 -38
69 -54 32 -139 121 -166 174 -67 132 -68 304 -3 432 51 100 164 197 264 227
29 9 306 58 616 110 310 51 567 97 571 102 14 16 334 1409 338 1473 13 204
-141 376 -347 388 -93 5 -165 -13 -234 -59 -57 -38 -120 -117 -142 -180 -9
-24 -104 -420 -211 -879 -107 -459 -196 -836 -198 -837 -1 -2 -148 425 -326
949 -177 524 -334 974 -348 1001 -33 62 -109 132 -178 164 -79 36 -188 41
-269 12z"/>
<path d="M5596 5259 c-358 -59 -669 -115 -693 -124 -23 -9 -64 -36 -91 -60
-154 -139 -120 -392 65 -485 79 -40 149 -38 465 14 294 48 311 49 342 4 22
-31 20 -62 -6 -93 -22 -25 -41 -29 -328 -76 -168 -27 -321 -49 -341 -49 l-36
0 -16 -66 c-72 -288 -406 -453 -672 -330 l-49 22 -56 -56 c-125 -122 -298
-167 -473 -121 -42 11 -66 13 -64 7 2 -6 68 -198 147 -426 168 -491 175 -508
233 -598 119 -185 320 -321 540 -366 107 -22 1295 -24 1409 -2 279 54 519 251
618 508 42 108 127 458 145 595 19 143 19 378 0 508 -7 55 -46 246 -85 425
-157 715 -157 717 -238 796 -38 37 -125 85 -152 83 -8 -1 -307 -50 -664 -110z"/>
</g>
</svg>
