<?xml version="1.0" encoding="iso-8859-1"?>
<!-- Generator: Adobe Illustrator 19.0.0, SVG Export Plug-In . SVG Version: 6.00 Build 0)  -->
<svg version="1.1" id="Capa_1" xmlns="http://www.w3.org/2000/svg" xmlns:xlink="http://www.w3.org/1999/xlink" x="0px" y="0px"
	 viewBox="0 0 368.171 368.171" style="enable-background:new 0 0 368.171 368.171;" xml:space="preserve">
<g>
	<g>
		<path d="M333.589,124.557L227.477,18.445c-10.219-10.219-28.011-10.219-38.251,0c-10.539,10.539-10.539,27.712,0,38.251
			l5.141,5.141c2.091,2.091,3.115,4.821,3.115,7.552c0,2.731-1.045,5.461-3.115,7.552c-4.16,4.16-10.923,4.16-15.083,0
			l-31.808-31.808c-10.539-10.539-27.712-10.539-38.251,0c-5.099,5.12-7.915,11.904-7.915,19.115c0,7.211,2.816,14.016,7.915,19.115
			l31.829,31.829c2.091,2.091,3.115,4.821,3.115,7.552c0,2.731-1.045,5.461-3.115,7.552c-4.16,4.16-10.923,4.16-15.083,0
			L78.165,82.467c-10.539-10.539-27.712-10.539-38.251,0c-10.539,10.539-10.539,27.712,0,38.251l47.808,47.808
			c2.091,2.091,3.115,4.821,3.115,7.552c0,2.731-1.045,5.461-3.115,7.552c-4.16,4.16-10.923,4.16-15.083,0l-26.475-26.475
			c-10.219-10.219-28.011-10.219-38.251,0C2.816,162.275,0,169.059,0,176.269c0,7.211,2.816,14.016,7.915,19.115l79.808,79.808
			c2.091,2.091,3.115,4.821,3.115,7.552c0,2.731-1.045,5.461-3.115,7.552c-4.16,4.16-10.923,4.16-15.083,0l-24.469-24.491v16.917
			c0,41.173,33.493,74.667,74.667,74.667h105.152c25.643,0,49.749-9.984,67.883-28.117l37.717-37.717
			c22.293-22.293,34.581-51.968,34.581-83.499C368.171,176.525,355.883,146.851,333.589,124.557z"/>
	</g>
</g>
<g>
</g>
<g>
</g>
<g>
</g>
<g>
</g>
<g>
</g>
<g>
</g>
<g>
</g>
<g>
</g>
<g>
</g>
<g>
</g>
<g>
</g>
<g>
</g>
<g>
</g>
<g>
</g>
<g>
</g>
</svg>
